<svg viewBox="0 0 800 800" xmlns="http://www.w3.org/2000/svg"><path d="M744.5358417680881,189.42475844764226 L720.0983311354556,234.83866032295384 M720.0983311354556,234.83866032295384 L693.2059552098966,267.3992265505418 M693.2059552098966,267.3992265505418 L664.2506483282704,299.1192058674237 M664.2506483282704,299.1192058674237 L633.7710941975513,329.4152790718946 M633.7710941975513,329.4152790718946 L601.6579792161455,358.4411732842742 M601.6579792161455,358.4411732842742 L568.0146279808524,386.11914283962597 M568.0146279808524,386.11914283962597 L532.9430129756572,412.3837701467975 M532.9430129756572,412.3837701467975 L496.54214855704777,437.1813124162411 M496.54214855704777,437.1813124162411 L458.90675701819174,460.4688331399452 M458.90675701819174,460.4688331399452 L415.72969207134685,484.55920393710676 M415.72969207134685,484.55920393710676 L370.21190195779883,507.3204047078751 M370.21190195779883,507.3204047078751 L322.25188062465224,528.7752112561878 M322.25188062465224,528.7752112561878 L271.94456280066856,548.840367029318 M271.94456280066856,548.840367029318 L219.41061199789632,567.4300837331441 M219.41061199789632,567.4300837331441 L164.79832418392445,584.4578402599345 M164.79832418392445,584.4578402599345 L120.23054714943567,596.7675799010416 M120.23054714943567,596.7675799010416 L74.91863287974115,607.9252432180551 M55.46415823191194,595.0294936282288 L74.91863287974115,607.9252432180551 M55.46415823191194,595.0294936282288 L112.2355499720793,580.7234355165593 M112.2355499720793,580.7234355165593 L168.34374650744397,564.6227100264626 M168.34374650744397,564.6227100264626 L219.93986328797808,547.9062219566019 M219.93986328797808,547.9062219566019 L269.3498119559855,529.9930335544441 M269.3498119559855,529.9930335544441 L316.62894412826944,510.9107526238222 M316.62894412826944,510.9107526238222 L361.7902894844358,490.6993972794828 M361.7902894844358,490.6993972794828 L404.8301386261481,469.4056089851622 M404.8301386261481,469.4056089851622 L445.73961290136987,447.07944060668785 M445.73961290136987,447.07944060668785 L488.72441299929756,421.10976128922937 M488.72441299929756,421.10976128922937 L530.0009216970324,393.4409838384913 M530.0009216970324,393.4409838384913 L569.8182883670157,363.8994045389121 M569.8182883670157,363.8994045389121 L608.1367382811324,332.47598282882836 M608.1367382811324,332.47598282882836 L644.9323708051176,299.1477267724382 M644.9323708051176,299.1477267724382 L662.8956987031404,281.6180992094681 M662.8956987031404,281.6180992094681 L680.217358740008,263.8551094242437 M680.217358740008,263.8551094242437 L713.6046247685665,227.00144558928463 M713.6046247685665,227.00144558928463 L744.5358417680881,189.42475844764226" stroke="black"  stroke-width="4"  fill="red"/>
<path d="M720.0983311354556,234.83866032295384 L717.0603293646486,240.36521222577494 M717.0603293646486,240.36521222577494 L713.3372678194247,245.39072530423982 M713.3372678194247,245.39072530423982 L709.219637684637,249.84497555482625 M709.219637684637,249.84497555482625 L703.6864626807286,254.9087894464493 M703.6864626807286,254.9087894464493 L696.7178629549253,260.5163044143463 M696.7178629549253,260.5163044143463 L677.1093669223411,274.43081693190953 M677.1093669223411,274.43081693190953 L656.5659252227429,287.900517723352 M656.5659252227429,287.900517723352 L635.9803641283349,300.9548192164309 M635.9803641283349,300.9548192164309 L571.1224278135085,340.87467182021646 M571.1224278135085,340.87467182021646 L468.28633973137534,402.3085014935501 M468.28633973137534,402.3085014935501 L407.43486814865923,437.8741864046649 M407.43486814865923,437.8741864046649 L346.4103270273493,472.9818790464177 M346.4103270273493,472.9818790464177 L291.1035419644342,504.31591615476964 M291.1035419644342,504.31591615476964 L235.6575154355682,535.2333792858512 M235.6575154355682,535.2333792858512 L164.1630702853586,574.1088586823387 M164.1630702853586,574.1088586823387 L141.39901817520035,586.0605981213171 M141.39901817520035,586.0605981213171 L118.63071920335426,597.5051003713511 M118.63071920335426,597.5051003713511 L97.98886086155159,606.6903639263577 M97.98886086155159,606.6903639263577 L87.69347352179318,609.934511156235 M87.69347352179318,609.934511156235 L81.68836115395857,610.5752415523576 M81.68836115395857,610.5752415523576 L77.73719259429674,609.7683166916181 M77.73719259429674,609.7683166916181 L76.24455243745501,608.9799127082881 M76.24455243745501,608.9799127082881 L74.91863287974115,607.9252432180551 M720.0983311354556,234.83866032295384 L693.2059552098966,267.3992265505418 M693.2059552098966,267.3992265505418 L664.2506483282704,299.1192058674237 M664.2506483282704,299.1192058674237 L633.7710941975513,329.4152790718946 M633.7710941975513,329.4152790718946 L601.6579792161455,358.4411732842742 M601.6579792161455,358.4411732842742 L568.0146279808524,386.11914283962597 M568.0146279808524,386.11914283962597 L532.9430129756572,412.3837701467975 M532.9430129756572,412.3837701467975 L496.54214855704777,437.1813124162411 M496.54214855704777,437.1813124162411 L458.90675701819174,460.4688331399452 M458.90675701819174,460.4688331399452 L415.72969207134685,484.55920393710676 M415.72969207134685,484.55920393710676 L370.21190195779883,507.3204047078751 M370.21190195779883,507.3204047078751 L322.25188062465224,528.7752112561878 M322.25188062465224,528.7752112561878 L271.94456280066856,548.840367029318 M271.94456280066856,548.840367029318 L219.41061199789632,567.4300837331441 M219.41061199789632,567.4300837331441 L164.79832418392445,584.4578402599345 M164.79832418392445,584.4578402599345 L120.23054714943567,596.7675799010416 M120.23054714943567,596.7675799010416 L74.91863287974115,607.9252432180551" stroke="black"  stroke-width="4"  fill="red"/></svg>