<svg version="1.1" xmlns="http://www.w3.org/2000/svg" viewBox="-13.36170549183044 -45.398210215488874 26.72341098366088 123.44048465131173" fill="none" stroke="black" stroke-width="0.6%" vector-effect="non-scaling-stroke">
    <path d="M -12.3617 63.02026 L -12.3617 75.90791 L -2.47234 77.04227 L 12.3617 1.41796" />
    <path d="M -2.47234 64.15463 L -2.47234 77.04227" />
    <path d="M -12.3617 63.02026 L -2.47234 64.15463 L 4.94468 26.34247 L 12.3617 -11.46969 L 12.3617 1.41796" />
    <path d="M -2.47234 64.15463 L -0.36901 -32.9346 A 7.5 5.73528 0 0 1 -1.84505 -33.10391 A 7.5 5.73528 0 0 1 -7.49862 -38.55301 A 7.5 5.73528 0 0 1 -7.41702 -39.51371 A 7.5 5.73528 0 0 1 0.36901 -44.39126 A 7.5 5.73528 0 0 1 1.84505 -44.22195 A 7.5 5.73528 0 0 1 7.49787 -38.5262 A 7.5 5.73528 0 0 1 7.41702 -37.81216 A 7.5 5.73528 0 0 1 -0.36901 -32.9346" />
    <path d="M -12.3617 63.02026 L -1.84505 -33.10391 C -9.91 40.58 -9.88 40.33 -9.85367 40.0907 C -9.83 39.85 -9.8 39.6 -9.7757 39.36103 C -9.75 39.12 -9.72 38.87 -9.6988 38.62964 C -9.67 38.39 -9.65 38.14 -9.62298 37.89654 C -9.6 37.65 -9.57 37.41 -9.54825 37.16173 C -9.52 36.92 -9.5 36.67 -9.47461 36.42521 C -9.45 36.18 -9.43 35.93 -9.40209 35.687 C -9.38 35.44 -9.35 35.19 -9.33068 34.94712 C -9.31 34.7 -9.28 34.45 -9.2604 34.20556 C -9.24 33.96 -9.21 33.71 -9.19126 33.46236 C -9.17 33.21 -9.15 32.97 -9.12326 32.71752 C -9.1 32.47 -9.08 32.22 -9.05642 31.97107 C -9.03 31.72 -9.01 31.47 -8.99074 31.22304 C -8.97 30.97 -8.95 30.72 -8.92623 30.47344 C -8.9 30.22 -8.88 29.97 -8.8629 29.72231 C -8.84 29.47 -8.82 29.22 -8.80076 28.96967 C -8.77 28.55 -8.73 28.12 -8.69871 27.69781 C -8.67 27.27 -8.63 26.85 -8.60008 26.42192 C -8.57 26 -8.54 25.57 -8.50488 25.14222 C -8.47 24.72 -8.44 24.29 -8.41314 23.85894 C -8.38 23.43 -8.35 23 -8.32488 22.57234 C -8.3 22.14 -8.27 21.71 -8.24011 21.28268 C -8.21 20.85 -8.19 20.42 -8.15883 19.99026 C -8.13 19.56 -8.11 19.13 -8.08106 18.69537 C -8.06 18.26 -8.03 17.83 -8.00678 17.39834 C -7.98 16.97 -7.96 16.53 -7.93599 16.0995 C -7.91 15.67 -7.89 15.23 -7.86867 14.7992 C -7.85 14.37 -7.83 13.93 -7.80481 13.4978 C -7.72 11.76 -7.65 10.02 -7.58338 8.2893 C -6.89 -11.82 -7.24 -27.31 -7.49862 -38.55301" />
    <path d="M -9.93269 40.81865 L -1.84505 -33.10391" />
    <path d="M 12.3617 -11.46969 L 1.84505 -44.22195" />
    <path d="M 7.18676 -22.50545 C 7.19 -22.51 7.19 -22.51 7.18652 -22.51531 C 7.19 -22.52 7.19 -22.53 7.18588 -22.54542 C 7.19 -22.56 7.19 -22.58 7.18497 -22.59529 C 7.18 -22.62 7.18 -22.64 7.18389 -22.66445 C 7.18 -22.69 7.18 -22.72 7.18271 -22.75237 C 7.18 -22.78 7.18 -22.82 7.18154 -22.85853 C 7.18 -22.9 7.18 -22.94 7.18044 -22.98238 C 7.18 -23.03 7.18 -23.07 7.17948 -23.12336 C 7.18 -23.17 7.18 -23.23 7.17872 -23.28089 C 7.18 -23.34 7.18 -23.39 7.17822 -23.45436 C 7.18 -23.51 7.18 -23.58 7.17801 -23.64314 C 7.18 -23.71 7.18 -23.78 7.17814 -23.84661 C 7.18 -23.92 7.18 -23.99 7.17864 -24.0641 C 7.18 -24.14 7.18 -24.22 7.17952 -24.29493 C 7.18 -24.37 7.18 -24.46 7.18079 -24.53842 C 7.18 -24.62 7.18 -24.71 7.18247 -24.79384 C 7.18 -24.89 7.18 -24.99 7.18479 -25.09075 C 7.19 -25.19 7.19 -25.3 7.18768 -25.40074 C 7.19 -25.51 7.19 -25.61 7.19114 -25.7232 C 7.19 -25.83 7.19 -25.94 7.19516 -26.05756 C 7.2 -26.17 7.2 -26.29 7.19973 -26.40328 C 7.2 -26.52 7.2 -26.64 7.20485 -26.75981 C 7.21 -26.88 7.21 -27 7.21051 -27.12664 C 7.21 -27.25 7.21 -27.38 7.21669 -27.50327 C 7.22 -27.63 7.22 -27.76 7.22339 -27.88922 C 7.23 -28.02 7.23 -28.15 7.2306 -28.28404 C 7.23 -28.42 7.24 -28.55 7.23831 -28.68728 C 7.24 -28.82 7.24 -28.96 7.24651 -29.09853 C 7.26 -29.65 7.27 -30.23 7.28402 -30.81584 C 7.34 -33.18 7.41 -35.79 7.49787 -38.5262" />
</svg>