<svg viewBox="0 0 800 800" xmlns="http://www.w3.org/2000/svg"><path d="M596.8608676203992,514.1941530513384 L635.2642567398948,541.8676215995717 M635.2642567398948,541.8676215995717 L662.2323420546295,573.7324596016973 M662.2323420546295,573.7324596016973 L676.4483949331666,608.2409563830056 M676.4483949331666,608.2409563830056 L677.214365570301,643.7154102031557 M677.214365570301,643.7154102031557 L664.4860828341782,678.4293987495333 M596.8608676203992,514.1941530513384 L597.0797088089166,58.96224023300806 M597.0797088089166,58.96224023300806 L638.5499977262702,89.41652298336874 M638.5499977262702,89.41652298336874 L666.1739865770912,124.70716105781673 M666.1739865770912,124.70716105781673 L678.3403590281548,162.78704776809914 M678.3403590281548,162.78704776809914 L674.3336351667544,201.44496555694502 M674.3336351667544,201.44496555694502 L654.3777879333747,238.4336467128419 M654.3777879333747,238.4336467128419 L619.6251580013843,271.60050209126007 M619.6251580013843,271.60050209126007 L572.0912669721677,299.01342338056924 M572.0912669721677,299.01342338056924 L514.5386073094851,319.07409307645764 M514.5386073094851,319.07409307645764 L450.3160883275382,330.6120673788746 M450.3160883275382,330.6120673788746 L383.16349995235254,332.95387235159444 M383.16349995235254,332.95387235159444 L316.99241923623856,325.96277021999424 M316.99241923623856,325.96277021999424 L255.65685898661593,310.0469134013157 M255.65685898661593,310.0469134013157 L202.72739997497231,286.13513484898385 M202.72739997497231,286.13513484898385 L161.28223381590504,255.62213545913963 M161.28223381590504,255.62213545913963 L133.72785788046008,220.28623202116435 M133.72785788046008,220.28623202116435 L121.65964097184519,182.18490097962479 M121.65964097184519,182.18490097962479 L125.77057679280927,143.53427251009987 M125.77057679280927,143.53427251009987 L145.812818734609,106.57994443833343 M145.812818734609,106.57994443833343 L180.61423411243354,73.46663603467528 M180.61423411243354,73.46663603467528 L228.14812517317912,46.11418866206964 M228.14812517317912,46.11418866206964 L285.6519994258486,26.1070659746332 M285.6519994258486,26.1070659746332 L349.7881236770149,14.603444771735326 M349.7881236770149,14.603444771735326 L416.8365000314111,12.268929137998612 M416.8365000314111,12.268929137998612 L482.9094251578769,19.238586898597646 M482.9094251578769,19.238586898597646 L544.1753724997243,35.10917834167185 M544.1753724997243,35.10917834167185 L597.0797088089166,58.96224023300806 M203.16556947763587,514.1941530513384 L251.9199095620027,491.7690037849976 M251.9199095620027,491.7690037849976 L308.0857112517423,476.16634143729493 M308.0857112517423,476.16634143729493 L368.8510415154088,468.16530473580576 M368.8510415154088,468.16530473580576 L431.1753955826264,468.16530473580576 M431.1753955826264,468.16530473580576 L491.9407258462929,476.16634143729493 M491.9407258462929,476.16634143729493 L548.1065275360324,491.7690037849976 M548.1065275360324,491.7690037849976 L596.8608676203992,514.1941530513384 M203.16556947763587,514.1941530513384 L160.96523234848505,545.4271262616455 M160.96523234848505,545.4271262616455 L133.2656694867195,581.6746662400122 M133.2656694867195,581.6746662400122 L121.7555863237016,620.7394402782315 M121.7555863237016,620.7394402782315 L127.14302854179317,660.2507662155347 M127.14302854179317,660.2507662155347 L149.11024532220128,697.8081742151721 M149.11024532220128,697.8081742151721 L186.33070903799867,731.1273533830183 M186.33070903799867,731.1273533830183 L236.54787716794638,758.1797202590873 M236.54787716794638,758.1797202590873 L296.711279109714,777.3168094542093 M296.711279109714,777.3168094542093 L363.161919705299,787.371719328673 M363.161919705299,787.371719328673 L431.85575374941783,787.7310708620014 M431.85575374941783,787.7310708620014 L498.61127988299154,778.3729351307871 M498.61127988299154,778.3729351307871 L501.22352113124526,722.9081375250842 M501.22352113124526,722.9081375250842 L508.28606391482134,666.5131696914477 M508.28606391482134,666.5131696914477 L518.310738563122,614.9193251713568 M518.310738563122,614.9193251713568 L532.220303694425,562.2954131194263 M532.220303694425,562.2954131194263 L556.999186041171,495.47561810603986 M556.999186041171,495.47561810603986 L571.981316761412,466.8687156833725 M571.981316761412,466.8687156833725 L582.3218471242328,451.9437175669233 M582.3218471242328,451.9437175669233 L589.400385821453,444.1476035222836 M589.400385821453,444.1476035222836 L593.0636238130128,440.9528249749827 M593.0636238130128,440.9528249749827 L597.9602245008412,437.65648010171924 M597.9602245008412,437.65648010171924 L602.3805272948857,435.7080754139881 M602.3805272948857,435.7080754139881 L608.2315859452715,434.71517798098694 M608.2315859452715,434.71517798098694 L612.3915094068482,435.18188744134204 M612.3915094068482,435.18188744134204 L618.3347925094085,437.70540085996504 M618.3347925094085,437.70540085996504 L625.1892583993251,443.70153975657206 M625.1892583993251,443.70153975657206 L635.0555017587064,459.61851295557557 M635.0555017587064,459.61851295557557 L643.5200936908252,482.92319070771475 M643.5200936908252,482.92319070771475 L656.1151991191673,549.5530981955834 M656.1151991191673,549.5530981955834 L661.7025124189645,611.4990528317064 M661.7025124189645,611.4990528317064 L664.4860828341782,678.4293987495333 M664.4860828341782,678.4293987495333 L203.16556947763587,514.1941530513384 M498.61127988299154,778.3729351307871 L203.16556947763587,514.1941530513384 M203.16556947763587,514.1941530513384 L203.16556947763587,514.1941530513384" stroke="black"  stroke-width="4"  fill="red"/></svg>