<svg version="1.1" xmlns="http://www.w3.org/2000/svg" viewBox="-15.708711246244857 -44.25226012606387 36.32032586868142 88.0925939570042" fill="none" stroke="black" stroke-width="0.6%" vector-effect="non-scaling-stroke">
    <path d="M -10 0 A 10 7.0014 180 1 0 8.77583 -3.35665 A 10 7.0014 180 1 0 -6.60132 5.2591 L -14.70871 33.64065 L -14.70871 40.7807 L 0 42.84033 L 19.61161 -25.81405" />
    <path d="M 9.80581 1.37309 A 10 7.0014 360 1 1 -8.77583 -3.35665 A 10 7.0014 360 1 1 -6.60132 5.2591" />
    <path d="M 10 0 A 10 7.0014 360 1 1 -8.77583 -3.35665 A 10 7.0014 360 0 1 9.80581 1.37309 L 0 35.70028 L 0 42.84033" />
    <path d="M 6.60132 -8.82913 A 10 7.0014 0 1 1 -8.77583 -6.92668 A 10 7.0014 0 0 1 10 -3.57003 A 10 7.0014 0 1 1 -8.77583 -6.92668 A 10 7.0014 0 1 1 -10 -3.57003 A 10 7.0014 0 0 1 -8.77583 -6.92668 A 10 7.0014 0 0 1 -4.9029 -9.67216" />
    <path d="M -4.9029 -36.38682 L -4.9029 -4.25657 L 4.9029 -2.88348 L 4.9029 -35.01373 L 6.86406 -41.87917 L -2.94174 -43.25226" />
    <path d="M -4.9029 -36.38682 L -2.94174 -43.25226" />
    <path d="M 4.9029 -2.88348 L 6.60132 -8.82913" />
    <path d="M 0 35.70028 L -14.70871 33.64065" />
    <path d="M 4.9029 -35.01373 L -4.9029 -36.38682" />
    <path d="M 6.86406 -8.66157 L 6.86406 -41.87917" />
    <path d="M 19.61161 -32.9541 L 6.86406 -34.73912" />
    <path d="M 19.61161 -32.9541 L 9.80581 1.37309" />
    <path d="M 19.61161 -32.9541 L 19.61161 -25.81405" />
    <path d="M 6.86406 29.52138 L 6.86406 18.8113" />
    <path d="M 4.9029 36.38682 L 6.86406 29.52138" />
    <path d="M 1.96116 35.97489 L 4.9029 36.38682 L 4.9029 25.67674" />
    <path d="M -10 -3.57003 L -10 0" />
    <path d="M 10 -3.57003 L 10 0" />
</svg>