<svg viewBox="0 0 800 800" xmlns="http://www.w3.org/2000/svg"><path d="M745.0340907392484,199.68740441421073 L729.830981387674,213.2407924405622 M729.830981387674,213.2407924405622 L709.1658426708492,229.6801801657557 M709.1658426708492,229.6801801657557 L679.8844755381942,250.96723075722514 M679.8844755381942,250.96723075722514 L660.868556371609,263.99205317255064 M660.868556371609,263.99205317255064 L641.8038907359689,276.58809998677464 M641.8038907359689,276.58809998677464 L617.4661902037979,292.15703911669993 M617.4661902037979,292.15703911669993 L593.0856277775772,307.33819804008147 M593.0856277775772,307.33819804008147 L558.0046936071808,328.70578210318536 M558.0046936071808,328.70578210318536 L522.8624909236974,349.7617781011761 M522.8624909236974,349.7617781011761 L364.07037629692513,443.1858033010841 M364.07037629692513,443.1858033010841 L309.5313260569585,474.9320808039656 M309.5313260569585,474.9320808039656 L254.85845699752258,506.2701525335127 M254.85845699752258,506.2701525335127 L205.81862201792418,533.2885669690679 M205.81862201792418,533.2885669690679 L177.49896899683858,548.1419903832923 M177.49896899683858,548.1419903832923 L149.16249398340767,562.4741930364695 M149.16249398340767,562.4741930364695 L101.36567496052692,585.695461553205 M101.36567496052692,585.695461553205 L78.71322829849532,595.5191018829663 M78.71322829849532,595.5191018829663 L66.76414088343984,599.3486830894245 M66.76414088343984,599.3486830894245 L60.62829648080219,600.3125955857892 M60.62829648080219,600.3125955857892 L54.96590926075157,599.856815705844 M745.0340907392484,199.68740441421073 L722.5641449780619,221.43299203749137 M722.5641449780619,221.43299203749137 L676.3336527021143,264.56184455496816 M676.3336527021143,264.56184455496816 L637.8439016840218,301.94643131407963 M637.8439016840218,301.94643131407963 L591.1335888992987,346.85105043192993 M591.1335888992987,346.85105043192993 L561.5575010192194,372.6735569200173 M561.5575010192194,372.6735569200173 L533.7096793839331,394.26763678132 M533.7096793839331,394.26763678132 L506.9956182774614,412.4725397718396 M506.9956182774614,412.4725397718396 L479.82684263789264,428.72211293284147 M479.82684263789264,428.72211293284147 L447.9099810513834,445.37923009355677 M447.9099810513834,445.37923009355677 L412.8213408808106,461.33526340240985 M412.8213408808106,461.33526340240985 L372.3141631949184,477.59579690559565 M372.3141631949184,477.59579690559565 L320.7675684501032,496.38031105214407 M320.7675684501032,496.38031105214407 L250.39673990506023,521.4319991403277 M250.39673990506023,521.4319991403277 L200.9678707171347,540.3727159208803 M200.9678707171347,540.3727159208803 L149.96617184524686,561.8179747935301 M149.96617184524686,561.8179747935301 L96.24329554974759,584.8634252943644 M96.24329554974759,584.8634252943644 L76.15399573149102,592.6524465927909 M76.15399573149102,592.6524465927909 L54.96590926075157,599.856815705844" stroke="black"  stroke-width="4"  fill="red"/></svg>