<svg viewBox="0 0 800 800" xmlns="http://www.w3.org/2000/svg"><path d="M378.5045711803832,648.8531024061313 L412.38353218674456,639.051150205807 M412.38353218674456,639.051150205807 L435.4504355322978,623.7586868761906 M435.4504355322978,623.7586868761906 L450.6109339135394,605.3055163091476 M450.6109339135394,605.3055163091476 L460.02012870520036,585.2997914355226 M460.02012870520036,585.2997914355226 L465.2762035868449,564.8342335138773 M465.2762035868449,564.8342335138773 L467.68102102274565,542.2945785315443 M467.68102102274565,542.2945785315443 L467.4192846447811,517.928275365987 M467.4192846447811,517.928275365987 L463.2409741974178,483.0259121706117 M463.2409741974178,483.0259121706117 L453.8091155193298,441.13448341341905 M453.8091155193298,441.13448341341905 L434.4774182922639,382.3479937829039 M434.4774182922639,382.3479937829039 L402.10856417211073,308.13462273923324 M402.10856417211073,308.13462273923324 L358.35042423567495,227.75753935716767 M358.35042423567495,227.75753935716767 L306.6984835961432,149.7405877538531 M306.6984835961432,149.7405877538531 L259.45420860849583,91.1314099270474 M259.45420860849583,91.1314099270474 L217.55340759819302,50.1530521356608 M217.55340759819302,50.1530521356608 L184.433899012185,27.878076784828806 M184.433899012185,27.878076784828806 L164.61583194581647,21.475858134717953 M164.61583194581647,21.475858134717953 L151.8832048005205,22.120842086922835 M151.8832048005205,22.120842086922835 L143.70564095794754,25.90196711981764 M143.70564095794754,25.90196711981764 L136.59931422926883,32.804307442003335 M136.59931422926883,32.804307442003335 L130.78969895595247,42.58567986922435 M130.78969895595247,42.58567986922435 L126.23602088202671,55.04106987534749 M126.23602088202671,55.04106987534749 L122.89745396966731,69.9653980356581 M122.89745396966731,69.9653980356581 L120.26555516229973,93.35038808319581 M120.26555516229973,93.35038808319581 L120.01958764477871,134.9086964164601 M120.01958764477871,134.9086964164601 L124.68788414735963,189.1287795236235 M124.68788414735963,189.1287795236235 L138.56400969048696,271.18875115100064 M138.56400969048696,271.18875115100064 L161.47143857052635,362.66777534614255 M161.47143857052635,362.66777534614255 L187.90353205137689,442.8005865931459 M187.90353205137689,442.8005865931459 L217.08745491227654,512.6058403889001 M217.08745491227654,512.6058403889001 L246.6715007907469,568.0483211110248 M246.6715007907469,568.0483211110248 L275.2082834580275,608.5897536699638 M275.2082834580275,608.5897536699638 L302.1129828089795,635.5662020711329 M302.1129828089795,635.5662020711329 L327.4116722209353,650.7792652209187 M327.4116722209353,650.7792652209187 L350.48536134868414,655.6076983780872 M350.48536134868414,655.6076983780872 L364.49867032005807,654.0449143241907 M364.49867032005807,654.0449143241907 L378.5045711803832,648.8531024061313 M378.5045711803832,648.8531024061313 L590.8611559130693,771.7293850007196 M590.8611559130693,771.7293850007196 L624.7257585358166,761.8864199521931 M624.7257585358166,761.8864199521931 L647.780794123276,746.5552479348923 M647.780794123276,746.5552479348923 L662.9314691577879,728.0661303598039 M662.9314691577879,728.0661303598039 L672.332518966949,708.027406235969 M672.332518966949,708.027406235969 L677.5818070715991,687.5317960199312 M677.5818070715991,687.5317960199312 L679.9804123552212,664.9619496165624 M679.9804123552212,664.9619496165624 L679.7129772029892,640.565435635503 M679.7129772029892,640.565435635503 L675.5278971378027,605.6230470021269 M675.5278971378027,605.6230470021269 L666.0895521072912,563.6873594482856 M666.0895521072912,563.6873594482856 L646.7510500096855,504.8439949529793 M646.7510500096855,504.8439949529793 L614.3767503294266,430.56573442498416 M614.3767503294266,430.56573442498416 L570.6162615160783,350.1259760846544 M570.6162615160783,350.1259760846544 L518.966045444908,272.05635506500926 M518.966045444908,272.05635506500926 L471.7270532883738,213.4152980042432 M471.7270532883738,213.4152980042432 L429.8343371150114,172.422853846775 M429.8343371150114,172.422853846775 L396.7245332230873,150.14990716874848 M396.7245332230873,150.14990716874848 L376.9146000441939,143.7579540987287 M376.9146000441939,143.7579540987287 L364.1888303799815,144.4157725594987 M364.1888303799815,144.4157725594987 L356.0168413404824,148.20956520441342 M356.0168413404824,148.20956520441342 L348.91661322381344,155.12766492808498 M348.91661322381344,155.12766492808498 L343.1134057973029,164.92735091684625 M343.1134057973029,164.92735091684625 L338.566411065035,177.40338722388333 M338.566411065035,177.40338722388333 L335.234729312626,192.3504498339637 M335.234729312626,192.3504498339637 L332.6122203161624,215.7685908098307 M332.6122203161624,215.7685908098307 L332.3805107959822,257.38157290781146 M332.3805107959822,257.38157290781146 L337.06460934712936,311.66817429682055 M337.06460934712936,311.66817429682055 L350.96061266134416,393.822116881611 M350.96061266134416,393.822116881611 L373.8854279070632,485.39835615348386 M373.8854279070632,485.39835615348386 L400.32830074963977,565.6096464635933 M400.32830074963977,565.6096464635933 L429.51711130361616,635.4766826944712 M429.51711130361616,635.4766826944712 L459.10016517790814,690.9612755459355 M459.10016517790814,690.9612755459355 L487.63080948488323,731.5259116494976 M487.63080948488323,731.5259116494976 L514.5251555440884,758.5090652494299 M514.5251555440884,758.5090652494299 L539.8099149367442,773.7147005669029 M539.8099149367442,773.7147005669029 L562.8671841311968,778.5241418652821 M562.8671841311968,778.5241418652821 L576.868611581813,776.9437189396514 M576.868611581813,776.9437189396514 L590.8611559130693,771.7293850007196" stroke="black"  stroke-width="4"  fill="red"/></svg>