<svg viewBox="0 0 800 800" xmlns="http://www.w3.org/2000/svg"><path d="M754.4560909720985,370.81145402467 L754.4560960400538,370.80559912785594 M653.2998574820197,546.4876598138917 L653.299861429022,546.4818029651203 M754.4560909720985,370.81145402467 L756.6937540338572,418.6606336138448 M756.6937540338572,418.6606336138448 L739.8218020450704,465.53238712819507 M739.8218020450704,465.53238712819507 L704.7335922131606,508.91660373668736 M704.7335922131606,508.91660373668736 L653.2998574820197,546.4876598138917 M754.4560960400538,370.80559912785594 L756.6937591275923,418.65477818511533 M756.6937591275923,418.65477818511533 L739.8218069522404,465.5265311786031 M739.8218069522404,465.5265311786031 L704.7335967311953,508.91074730515317 M704.7335967311953,508.91074730515317 L653.299861429022,546.4818029651203 M145.99728946108584,546.4876598138917 L145.99728776951338,546.4818029651203 M653.2998574820197,546.4876598138917 L590.529645421911,575.4159966927477 M590.529645421911,575.4159966927477 L518.166244643988,595.5508402576315 M518.166244643988,595.5508402576315 L439.8440559579739,605.8783679879318 M439.8440559579739,605.8783679879318 L359.49881602166823,605.8783644936575 M359.49881602166823,605.8783644936575 L281.1686651037129,595.5508507396335 M281.1686651037129,595.5508507396335 L208.78976754180837,575.4159949460143 M208.78976754180837,575.4159949460143 L145.99728946108584,546.4876598138917 M653.299861429022,546.4818029651203 L590.5296486715904,575.4101395227999 M590.5296486715904,575.4101395227999 L518.1662470894601,595.5449828641788 M518.1662470894601,595.5449828641788 L439.84405753280913,605.8725104798523 M439.84405753280913,605.8725104798523 L359.49881670327954,605.872506985578 M359.49881670327954,605.872506985578 L281.16866491451026,595.5449933461805 M281.16866491451026,595.5449933461805 L208.78976654805382,575.4101377760664 M208.78976654805382,575.4101377760664 L145.99728776951338,546.4818029651203 M146.16625889642086,253.82401288735988 L146.16625720860253,253.81815929184964 M145.99728946108584,546.4876598138917 L95.94196982673333,510.22164183256785 M95.94196982673333,510.22164183256785 L61.13169261320962,468.4416924034838 M61.13169261320962,468.4416924034838 L43.306243704047574,423.247015085575 M43.306243704047574,423.247015085575 L43.351066438846374,376.9061749220385 M43.351066438846374,376.9061749220385 L61.25467983799422,331.7428933216015 M61.25467983799422,331.7428933216015 L96.11093792434974,290.0195027185905 M96.11093792434974,290.0195027185905 L146.16625889642086,253.82401288735988 M145.99728776951338,546.4818029651203 L95.94196757911459,510.2157853865388 M95.94196757911459,510.2157853865388 L61.131689979151815,468.4358364215682 M61.131689979151815,468.4358364215682 L43.30624087240767,423.24115960587125 M43.30624087240767,423.24115960587125 L43.35106360820231,376.90031995746176 M43.35106360820231,376.90031995746176 L61.2546772066687,331.7370388592361 M61.2546772066687,331.7370388592361 L96.110935680485,290.0136487203383 M96.110935680485,290.0136487203383 L146.16625720860253,253.81815929184964 M450.17611196474667,195.36924917556044 L450.1761136518157,195.36339623070117 M146.16625889642086,253.82401288735988 L211.16638960887065,224.1547016054388 M211.16638960887065,224.1547016054388 L286.22782138582556,203.89607121751752 M286.22782138582556,203.89607121751752 L367.3412107522184,194.12748494310242 M367.3412107522184,194.12748494310242 L450.17611196474667,195.36924917556044 M146.16625720860253,253.81815929184964 L211.1663886428235,224.148848340137 M211.1663886428235,224.148848340137 L286.2278212530625,203.89021817772957 M286.2278212530625,203.89021817772957 L367.3412115198155,194.12163201206826 M367.3412115198155,194.12163201206826 L450.1761136518157,195.36339623070117 M450.17611196474667,195.36924917556044 L754.4560909720985,370.81145402467 M450.1761136518157,195.36339623070117 L754.4560960400538,370.80559912785594" stroke="black"  stroke-width="4"  fill="red"/></svg>