<svg version="1.1" xmlns="http://www.w3.org/2000/svg" viewBox="-13.361705491830438 -43.74342199607015 26.72341098366088 118.91421470892789" fill="none" stroke="black" stroke-width="0.6%" vector-effect="non-scaling-stroke">
    <path d="M -12.3617 66.31109 L -12.3617 73.07871 L -2.47234 74.17079 L 12.3617 1.36511" />
    <path d="M -2.47234 67.40317 L -2.47234 74.17079" />
    <path d="M -12.3617 66.31109 L -2.47234 67.40317 L 4.94468 31.00033 L 12.3617 -5.40251 L 12.3617 1.36511" />
    <path d="M -2.47234 67.40317 L -0.36901 -31.70708 A 7.5 5.52151 0 0 1 -1.84505 -31.87008 A 7.5 5.52151 0 0 1 -7.49882 -37.124 A 7.5 5.52151 0 0 1 -7.41702 -38.04097 A 7.5 5.52151 0 0 1 0.36901 -42.73673 A 7.5 5.52151 0 0 1 1.84505 -42.57373 A 7.5 5.52151 0 0 1 7.49824 -37.10227 A 7.5 5.52151 0 0 1 7.41702 -36.40284 A 7.5 5.52151 0 0 1 -0.36901 -31.70708" />
    <path d="M -12.3617 66.31109 L -1.84505 -31.87008 C -9.77 42.14 -9.75 41.9 -9.72307 41.67185 C -9.7 41.44 -9.67 41.21 -9.64982 40.97137 C -9.63 40.74 -9.6 40.5 -9.57754 40.2687 C -9.55 40.03 -9.53 39.8 -9.50623 39.56385 C -9.48 39.33 -9.46 39.09 -9.43591 38.85682 C -9.41 38.62 -9.39 38.38 -9.3666 38.14762 C -9.34 37.91 -9.32 37.67 -9.29829 37.43626 C -9.28 37.2 -9.25 36.96 -9.23101 36.72276 C -9.21 36.48 -9.19 36.25 -9.16475 36.00713 C -9.14 35.77 -9.12 35.53 -9.09954 35.28938 C -9.08 35.05 -9.06 34.81 -9.03537 34.56953 C -9.01 34.33 -8.99 34.09 -8.97227 33.8476 C -8.95 33.61 -8.93 33.37 -8.91023 33.12362 C -8.89 32.88 -8.87 32.64 -8.84927 32.39761 C -8.83 32.16 -8.81 31.91 -8.78939 31.66958 C -8.77 31.43 -8.75 31.18 -8.73061 30.93958 C -8.7 30.53 -8.67 30.12 -8.63377 29.70155 C -8.6 29.29 -8.57 28.87 -8.54009 28.4581 C -8.51 28.04 -8.48 27.63 -8.44961 27.20944 C -8.42 26.79 -8.39 26.37 -8.36236 25.95579 C -8.33 25.54 -8.31 25.12 -8.27835 24.6974 C -8.25 24.28 -8.22 23.86 -8.19761 23.43451 C -8.17 23.01 -8.15 22.59 -8.12013 22.16741 C -8.09 21.74 -8.07 21.32 -8.04594 20.8964 C -8.02 20.47 -8 20.05 -7.97503 19.62177 C -7.95 19.2 -7.93 18.77 -7.9074 18.34387 C -7.89 17.92 -7.86 17.49 -7.84303 17.06304 C -7.82 16.64 -7.8 16.21 -7.78193 15.77965 C -7.7 14.07 -7.63 12.35 -7.56966 10.62839 C -6.96 -6.26 -7.16 -22.63 -7.49882 -37.124" />
    <path d="M -9.79728 42.37015 L -1.84505 -31.87008" />
    <path d="M 12.3617 -5.40251 L 1.84505 -42.57373" />
    <path d="M 7.19293 -19.37527 C 7.19 -19.38 7.19 -19.38 7.19283 -19.37817 C 7.19 -19.38 7.19 -19.38 7.19257 -19.38742 C 7.19 -19.39 7.19 -19.4 7.19216 -19.40298 C 7.19 -19.41 7.19 -19.42 7.19163 -19.42478 C 7.19 -19.43 7.19 -19.44 7.19099 -19.45275 C 7.19 -19.46 7.19 -19.47 7.19026 -19.48682 C 7.19 -19.5 7.19 -19.51 7.18945 -19.52694 C 7.19 -19.54 7.19 -19.56 7.1886 -19.57302 C 7.19 -19.59 7.19 -19.61 7.1877 -19.62499 C 7.19 -19.64 7.19 -19.66 7.18678 -19.68277 C 7.19 -19.7 7.19 -19.72 7.18585 -19.74629 C 7.19 -19.77 7.19 -19.79 7.18492 -19.81547 C 7.18 -19.84 7.18 -19.86 7.18401 -19.89022 C 7.18 -19.92 7.18 -19.94 7.18312 -19.97045 C 7.18 -20 7.18 -20.03 7.18228 -20.05609 C 7.18 -20.09 7.18 -20.12 7.18148 -20.14703 C 7.18 -20.18 7.18 -20.21 7.18075 -20.24319 C 7.18 -20.28 7.18 -20.31 7.18008 -20.34448 C 7.18 -20.38 7.18 -20.41 7.1795 -20.45079 C 7.18 -20.49 7.18 -20.52 7.179 -20.56202 C 7.18 -20.6 7.18 -20.64 7.1786 -20.67808 C 7.18 -20.72 7.18 -20.76 7.17829 -20.79886 C 7.18 -20.84 7.18 -20.88 7.1781 -20.92426 C 7.18 -20.97 7.18 -21.01 7.17802 -21.05416 C 7.18 -21.1 7.18 -21.14 7.17805 -21.18846 C 7.18 -21.23 7.18 -21.28 7.1782 -21.32704 C 7.18 -21.37 7.18 -21.42 7.17848 -21.46979 C 7.18 -21.52 7.18 -21.57 7.17889 -21.61659 C 7.18 -21.81 7.18 -22.02 7.18179 -22.24186 C 7.2 -25.77 7.33 -31.29 7.49824 -37.10227" />
</svg>