<svg version="1.1" xmlns="http://www.w3.org/2000/svg" viewBox="-15.834046413564684 -44.28759348523178 31.668092827129364 87.94934223913182" fill="none" stroke="black" stroke-width="0.6%" vector-effect="non-scaling-stroke">
    <path d="M 0 35.55146 L 0 42.66175 L 14.83405 -26.87655" />
    <path d="M 0 35.55146 L -14.83405 33.98684 L -14.83405 41.09714 L 0 42.66175" />
    <path d="M 14.83405 -33.98684 L 14.83405 -26.87655" />
    <path d="M 0 35.55146 L 14.83405 -33.98684 L 3.95575 -35.13423" />
    <path d="M 2.47234 0.26077 L -7.41702 -0.78231 L -14.83405 33.98684" />
    <path d="M 3.95575 -6.69306 L 2.47234 0.26077 L 2.47234 -35.29069 L -7.41702 -36.33376 L -7.41702 -0.78231" />
    <path d="M -7.41702 -36.33376 L -5.93362 -43.28759" />
    <path d="M 2.47234 -35.29069 L 3.95575 -42.24452 L -5.93362 -43.28759" />
    <path d="M 3.95575 -6.69306 L 3.95575 -42.24452" />
    <path d="M 1.4834 35.70792 L 2.47234 35.81223 L 3.95575 28.85839 L 3.95575 24.1182" />
    <path d="M 2.47234 35.81223 L 2.47234 31.07203" />
</svg>