<svg viewBox="0 0 800 800" xmlns="http://www.w3.org/2000/svg"><path d="M780.2619334201825,475.97029129291855 L780.2619399904114,475.9638376699889 M691.9538262885193,553.978540111922 L691.953831879203,553.9720856221936 M780.2619334201825,475.97029129291855 L757.1257927365605,504.2286779112238 M757.1257927365605,504.2286779112238 L727.504560088729,530.395706785167 M727.504560088729,530.395706785167 L691.9538262885193,553.978540111922 M780.2619399904114,475.9638376699889 L757.1257990503765,504.2222239742437 M757.1257990503765,504.2222239742437 L727.5045660739789,530.3892525574333 M727.5045660739789,530.3892525574333 L691.953831879203,553.9720856221936 M132.94755171484286,553.978540111922 L132.94755109365576,553.9720856221936 M691.9538262885193,553.978540111922 L622.7984069746415,585.8481333190514 M622.7984069746415,585.8481333190514 L543.0683422329525,608.0301669512987 M543.0683422329525,608.0301669512987 L456.76802902985037,619.4077325231874 M456.76802902985037,619.4077325231874 L368.2340929691153,619.4077310796058 M368.2340929691153,619.4077310796058 L281.91625036441746,608.0301765744216 M281.91625036441746,608.0301765744216 L202.15203414508494,585.848135243382 M202.15203414508494,585.848135243382 L132.94755171484286,553.978540111922 M691.953831879203,553.9720856221936 L622.7984117973756,585.8416784753342 M622.7984117973756,585.8416784753342 L543.0683461699019,608.0237118612422 M543.0683461699019,608.0237118612422 L456.76803200773884,619.4012773067934 M456.76803200773884,619.4012773067934 L368.23409496296256,619.4012758632119 M368.23409496296256,619.4012758632119 L281.9162513988145,608.023721484365 M281.9162513988145,608.023721484365 L202.15203429293825,585.8416803996647 M202.15203429293825,585.8416803996647 L132.94755109365576,553.9720856221936 M133.0096014733703,231.5585370112206 L133.0096008535615,231.5520861071177 M132.94755171484286,553.978540111922 L77.77526207131746,514.0252125900474 M77.77526207131746,514.0252125900474 L39.3994407453514,467.9973213026781 M39.3994407453514,467.9973213026781 L19.738061887920423,418.20751540083893 M19.738061887920423,418.20751540083893 L19.767795982528924,367.15500276017457 M19.767795982528924,367.15500276017457 L39.476964253481356,317.39977654883995 M39.476964253481356,317.39977654883995 L77.86804320464381,271.4341827488179 M77.86804320464381,271.4341827488179 L133.0096014733703,231.5585370112206 M132.94755109365576,553.9720856221936 L77.77526083720659,514.0187585442075 M77.77526083720659,514.0187585442075 L39.39943908511691,467.9908677683672 M39.39943908511691,467.9908677683672 L19.738060009588708,418.2010624200477 M19.738060009588708,418.2010624200477 L19.767794104857785,367.14855034713736 M19.767794104857785,367.14855034713736 L39.476962594968654,317.3933246893217 M39.476962594968654,317.3933246893217 L77.8680419725938,271.42773140082784 M77.8680419725938,271.42773140082784 L133.0096008535615,231.5520861071177 M267.98122961236714,180.59871781346465 L267.98123049059063,180.59226747681265 M133.0096014733703,231.5585370112206 L173.81076900481446,211.0528275053256 M173.81076900481446,211.0528275053256 L219.08450313292906,193.959585812326 M219.08450313292906,193.959585812326 L267.98122961236714,180.59871781346465 M133.0096008535615,231.5520861071177 L173.8107688379108,211.04637682953518 M173.8107688379108,211.04637682953518 L219.08450346850918,193.953135326878 M219.08450346850918,193.953135326878 L267.98123049059063,180.59226747681265 M267.98122961236714,180.59871781346465 L780.2619334201825,475.97029129291855 M267.98123049059063,180.59226747681265 L780.2619399904114,475.9638376699889" stroke="black"  stroke-width="4"  fill="red"/></svg>