<svg version="1.1" xmlns="http://www.w3.org/2000/svg" viewBox="-17.977494852696257 -44.48663509555247 40.80570220355115 88.12886950714196" fill="none" stroke="black" stroke-width="0.6%" vector-effect="non-scaling-stroke">
    <path d="M -12.12678 -9.28841 A 12.5 8.70388 360 0 1 -10.96978 -11.35027 A 12.5 8.70388 360 0 1 -4.85071 -15.19921" />
    <path d="M 7.27607 -14.25477 A 12.5 8.70388 360 1 1 -10.96978 -11.35027 A 12.5 8.70388 360 0 1 12.5 -7.17741 A 12.5 8.70388 360 1 1 -10.96978 -11.35027 A 12.5 8.70388 360 1 1 -12.5 -7.17741 A 12.5 8.70388 360 0 1 -10.96978 -11.35027 A 12.5 8.70388 360 1 1 -12.12678 -9.28841" />
    <path d="M -7.62931 6.89466 A 12.5 8.70388 360 0 1 -10.96978 -4.17286 A 12.5 8.70388 360 1 1 -12.5 0" />
    <path d="M 7.88241 6.75521 A 12.5 8.70388 360 0 1 -10.96978 -4.17286 A 12.5 8.70388 360 1 1 -7.62931 6.89466 L -16.97749 32.93163 L -16.97749 40.10903 L -2.42536 42.64223 L 21.82821 -24.90982" />
    <path d="M 7.88241 6.75521 A 12.5 8.70388 180 0 0 10.96978 -4.17286 A 12.5 8.70388 180 1 0 12.5 0" />
    <path d="M 21.82821 -32.08723 L 7.27607 -34.62043" />
    <path d="M 21.82821 -32.08723 L 12.5 -6.10591" />
    <path d="M -4.85071 -8.02181 L 4.85071 -6.333 L 4.85071 -35.04263 L -4.85071 -36.73143 L -2.42536 -43.48663" />
    <path d="M 4.85071 -6.333 L 7.27607 -13.08821 L 7.27607 -41.79783 L -2.42536 -43.48663" />
    <path d="M -2.42536 35.46483 L -16.97749 32.93163" />
    <path d="M 7.88241 6.75521 L -2.42536 35.46483 L -2.42536 42.64223" />
    <path d="M 21.82821 -32.08723 L 21.82821 -24.90982" />
    <path d="M 4.85071 -35.04263 L 7.27607 -41.79783" />
    <path d="M -4.85071 -36.73143 L -4.85071 -8.02181" />
    <path d="M 7.27607 29.97622 L 7.27607 15.62141" />
    <path d="M 4.85071 36.73143 L 7.27607 29.97622" />
    <path d="M 0 35.88703 L 4.85071 36.73143 L 4.85071 22.37662" />
    <path d="M -12.5 -7.17741 L -12.5 0" />
    <path d="M 12.5 -7.17741 L 12.5 0" />
</svg>